<svg width="192" height="192" viewBox="0 0 192 192" fill="none" xmlns="http://www.w3.org/2000/svg">
  <rect width="192" height="192" fill="#090B15" />
  <path d="M144.333 91.5534V96C144.327 106.423 140.952 116.564 134.712 124.912C128.471 133.26 119.699 139.367 109.704 142.322C99.7092 145.277 89.0267 144.923 79.2499 141.311C69.4731 137.698 61.1258 131.023 55.4529 122.279C49.7801 113.536 47.0856 103.192 47.7714 92.7922C48.4572 82.3921 52.4865 72.4923 59.2583 64.5692C66.0302 56.6462 75.1818 51.1244 85.3482 48.8274C95.5147 46.5304 106.151 47.5813 115.672 51.8234" stroke="#FEFEFF" stroke-width="10.08" stroke-linecap="round" stroke-linejoin="round" />
  <path d="M144.333 57.3334L96 105.715L81.5 91.215" stroke="#FEFEFF" stroke-width="10.08" stroke-linecap="round" stroke-linejoin="round" />
</svg>